<svg id="Capa_1" data-name="Capa 1" xmlns="http://www.w3.org/2000/svg" viewBox="0 0 43.93 43.88"><defs><style>.cls-1{fill:none;stroke:#000;stroke-miterlimit:10;}</style></defs><title>Black-Moon</title><path d="M43,34.82A23,23,0,0,1,.82,22.16,22.86,22.86,0,0,1,11.07,3,25,25,0,0,0,34.68,36.25,24.7,24.7,0,0,0,43,34.82Z" transform="translate(-0.32 -1.78)"/><path class="cls-1" d="M11.07,3A23,23,0,0,0,23.82,45.16,22.83,22.83,0,0,0,43,34.82a24.7,24.7,0,0,1-8.34,1.43A25,25,0,0,1,11.07,3Z" transform="translate(-0.32 -1.78)"/></svg>