<svg id="Layer_1" data-name="Layer 1" xmlns="http://www.w3.org/2000/svg" viewBox="0 0 869.06 790.46"><defs><style>.cls-1{fill:#fff;}.cls-2{fill:none;stroke:#000;stroke-miterlimit:10;stroke-width:9px;}</style></defs><title>White-Checkmark</title><path class="cls-1" d="M880.48,103.5l-21.6,12.79-.19-.15A903.69,903.69,0,0,0,680.22,355.65c-20.33,39.64-37.69,80.71-55,121.74q-84.91,200.9-169.81,401.78c-120.75-129.81-246.22-263-408.44-334.55,112.52-19.38,231.85,3.83,328.9,64q33.23-33.92,63.11-70.91C495.21,468,541.75,391.06,595.17,319.19S710.36,179.31,788.5,135.58C817,119.61,848,106.92,880.48,103.5Z" transform="translate(-31.47 -96.87)"/><path class="cls-2" d="M858.69,116.14A903.69,903.69,0,0,0,680.22,355.65c-20.33,39.64-37.69,80.71-55,121.74q-84.91,200.9-169.81,401.78c-120.75-129.81-246.22-263-408.44-334.55,112.52-19.38,231.85,3.83,328.9,64q33.23-33.92,63.11-70.91C495.21,468,541.75,391.06,595.17,319.19S710.36,179.31,788.5,135.58c28.53-16,59.46-28.66,92-32.08l-21.6,12.79" transform="translate(-31.47 -96.87)"/></svg>